<?xml version="1.0" encoding="utf-8"?>
<!-- Generator: Adobe Illustrator 27.0.0, SVG Export Plug-In . SVG Version: 6.00 Build 0)  -->
<svg version="1.1" id="圖層_1" xmlns="http://www.w3.org/2000/svg" xmlns:xlink="http://www.w3.org/1999/xlink" x="0px" y="0px"
	 viewBox="0 0 27.4 29.3" style="enable-background:new 0 0 27.4 29.3;" xml:space="preserve">
<path d="M17.7,21c1.8,2.2,3.7,4.4,5.6,6.6c0.3,0.4,0.7,0.7,1.2,0.9c0.7,0.3,1.2-0.1,1.2-0.9c0-0.8-0.4-1.5-0.9-2.1
	c-1.7-2-3.4-4-5.2-6c0,0,0,0,0-0.1c2.4-2.5,3.4-5.6,3-9C22.2,7.7,21,5.4,19,3.6C14.9,0,8.8,0,4.7,3.4C0.5,7-0.4,13,2.6,17.6
	C5.5,22.3,12.3,24.5,17.7,21z M11.7,2.8c2.1,0,4.1,0.7,5.8,2c3.8,3,4.5,8.6,1.6,12.4c-3.1,4-8.9,4.8-12.9,1.8
	c-3.2-2.4-4.5-6.6-3-10.3C4.4,5.1,7.9,2.8,11.7,2.8z"/>
</svg>
